<?xml version="1.0" encoding="utf-8"?>
<!-- Generator: Adobe Illustrator 22.0.0, SVG Export Plug-In . SVG Version: 6.00 Build 0)  -->
<svg version="1.1" id="Layer_1" xmlns="http://www.w3.org/2000/svg" xmlns:xlink="http://www.w3.org/1999/xlink" x="0px" y="0px"
	 viewBox="0 0 1366 400" style="enable-background:new 0 0 1366 400;" xml:space="preserve">
<style type="text/css">
	.st0{fill:#0b0a1c;}
</style>
<title>Ground</title>
<path class="st0" d="M-3.4,401.9c-3.2,0-3.7-0.6-3.7-3C-7.1,290-7,181.2-7.1,72.3c0.9-1.2,2.3-2,3.8-2c9.1-0.8,18.1-1.5,27.2-2.1
	c1.8,0.2,3.6,0.3,5.5,0.2c5.3,0,10.9,0.9,15.9-0.2c6.1-1.4,12.4-1.6,18.6-0.8c4.3,0.7,8.7,1,13.1,0.9c1.3-0.2,2.6-0.1,3.8,0.2
	c3.8,1.9,8,1,12,1.4c0.5,0.1,0.9,0.2,1.4,0.3c4,1.4,8.1,2.2,12.3,2.5c7.1,0.3,14.3,0.7,21.2,2.5c3.2,0.8,5.7-1,8.2-2.3
	c8.3-2.7,17-4.2,25.5-6.1c11.3-2.6,22.7-5.1,34.1-7.6c7.7-2.2,15.8-3.4,23.5-5.6c9.5-2.7,18.8-1.9,28.3-0.2c8.8,1.6,17.7,2.9,26.6,4
	c6.2,1,12.2,2.2,17.4,5.3c3.1,3.2,3.5,3.3,7.2,0.4c5.1-3.9,9.8-8.1,14.9-11.9c1.6-1.2,3.2-2.4,5.5-2.4c8.4,1.1,16.3,3.7,24.4,5.8
	c5.2,1.3,10.6,2.1,15.3,4.5c1.8,1.7,3,4.1,3.4,6.6c1.3,5.8,3,11.5,4.5,17.2c0.8,1.3,0.1,2.9,1.3,4.7c0.2-1.1,0.3-2.3,0.2-3.5
	c0-2.9-0.5-5.9,5-5.5c1.1,0,2.1-0.6,2.6-1.6c1.3-2,3.5-3,6-3.6c5.2-1.3,10.7-1.8,16-2.5c2.4-0.3,4.8,0.1,7.1,1.1
	c11.8,4.4,24,8.3,35.6,13.1c6.7,2.4,13.8,2.9,21,3c14.8,0.3,29.6,1.6,44.5,1.3c2.5,0.4,5.1,0.5,7.6,0.4c9.1-0.7,18.1,1.5,27.1,1
	c0.5,0,1.1,0,1.6-0.1c8.1-0.3,16.2,0.6,24.3,0.7c11.7,1.8,22.7-0.7,33.5-3.9c6.4-1.6,12.7-3.3,19.1-5.1c2.4-0.7,4.8-1.3,7.1-2
	c1.2-0.4,2.4-0.7,3.6-0.9c4-1.1,8.1-2.1,12-3.4c5.4-1.4,10.7-2.9,16.1-4.3c5.9-2,12.1-3.2,18.1-4.9c2.9-0.9,5.9-1.6,8.9-2
	c4.3,1,4.4,1.4,1,5.7c-1.1,1.2-1.5,2.8-1.2,4.4c3.4-2.7,7-1.8,10.7-1.7c6.7,0.2,13.4,0.3,19.9,1.8c2,0.5,3.8-0.5,5.1-1.4
	c8.1-5.4,17.8-5.8,27.6-6.1c1.1,0,2.3,0.3,3.3-0.4c3.4-2.8,7-1.8,10.6-0.3c2,0.5,3.2,2.1,5,2.9c3.9,3,7.5,6.5,11.7,9.3
	c1.3,1,2.6,1.9,4,2.7c2.6,1.5,4.5,3.5,6.9,5.1c1.9,1.4,4.2,2.5,5.8,4.3c3,1.9,6.4,0.6,9.6,0.6c2.9,0.1,5.7-0.3,8.4-1.1
	c15.3-1.1,30.6-1.6,45.9-3.1c3.8-0.5,7.5-1.4,11-2.7c10-3.5,19.3-8.2,30.1-10.1c7.6-0.9,14.9,0.6,22.2,1.6
	c9.2,1.2,17.9,3.8,27.3,4.6c5.4,0.4,10.6,2.8,16.2,3.5c4.7,0.6,9.2,1.8,14,1.8c1.9,0,3.7,0.3,5.4,1.1c3.5,1.6,7.3,2,11.1,2.6
	c4.2,0.6,8.3,1.7,12.2,3.2c3.5,1.4,7.5,1,11.3,1.4c12.7,1.4,23.9-2.3,35.1-6.7c6.4-2.5,12-6.4,19-7.9c1.9-0.3,3.5-1.4,4.4-3.1
	c0.7-1.3,2-2.2,3.5-2.2c2.7,0.2,4.6-1.2,6.6-2.2c6.9-3.3,14.4-5.1,21.7-7.6c13.7-4.7,27.1-10.1,40.9-14.6c1.6-0.3,3.2-0.2,4.7,0.1
	c5.6,4,12.5,6.4,18.9,9.3c10.3,4.7,20.1,9.9,30.3,14.7c4.3,2,7.8,2.1,12.3,0c15.1-7.2,29.2-15.6,44.6-22.5c1.6-0.7,3.4-1.3,5.2-1.6
	c7.9,1.5,15.9,2.7,23.7,4.6c20.2,4.6,39.1,12.1,58.6,18c5.7,1.7,11.1,3.8,16.9,5.2c2.7,0.6,5.2,1.8,7.2,3.7c0,105.5,0,211,0.1,316.5
	c0,2.6-0.7,3.2-4,3.2"/>
</svg>
