<svg id="Layer_1" data-name="Layer 1" xmlns="http://www.w3.org/2000/svg" viewBox="0 0 1366 768"><defs><style>.cls-1{fill:#f2f2f2;}</style></defs><title>storkN_Artboard 1</title><path class="cls-1" d="M20.06,1q92.16.12,184.32.06a2,2,0,0,0,2.78,0h22.27a2,2,0,0,0,2.78,0H1352.55"/><path class="cls-1" d="M232.21,1.06c-.93,1.73-1.85,1.61-2.78,0Z"/><path class="cls-1" d="M207.16,1.06c-.93,1.64-1.85,1.7-2.78,0Z"/><path class="cls-1" d="M695.63,309a2.9,2.9,0,0,1-3.35,2.63c-1.73-.12-2.87-1.09-2.79-2.84.08-2,1.22-3.34,3.28-3.19C694.6,305.74,695.47,307.13,695.63,309Z"/><path class="cls-1" d="M585,247.78c-.26,1.87-1.18,3.25-3,3.27a3,3,0,0,1-3.12-3.37c0-1.74,1.22-2.66,2.95-2.69A2.86,2.86,0,0,1,585,247.78Z"/><path class="cls-1" d="M553.7,178.4c0-2.2,1.25-2.9,2.89-2.83,1.86.07,2.57,1.61,2.48,3.11-.1,1.72-1.51,2.41-3.21,2.32S553.65,179.68,553.7,178.4Z"/><path class="cls-1" d="M23.88,300.48a2.9,2.9,0,0,1-2.49-3.23A2.07,2.07,0,0,1,23.84,295c1.74.05,2.91.91,3,2.67C27,299.67,25.31,300,23.88,300.48Z"/><path class="cls-1" d="M112,112.28c2.38-.1,3.16,1,3.15,2.3a2.4,2.4,0,0,1-2.75,2.45,2.32,2.32,0,0,1-2.48-2.36A2.37,2.37,0,0,1,112,112.28Z"/><path class="cls-1" d="M720.69,363.47c0,1.5-.69,2.48-2.27,2.32a2.6,2.6,0,0,1-2.51-2.74c0-1.43.9-2,2.23-2C719.83,361,720.71,361.75,720.69,363.47Z"/><path class="cls-1" d="M1247.75,259.54a2.09,2.09,0,0,1-2.35-2.3c0-1.69.74-2.56,2.47-2.53a2.42,2.42,0,0,1-.12,4.83Z"/><path class="cls-1" d="M583.41,50.35A2.62,2.62,0,0,1,581,52.9c-1.53.1-2.28-1.25-2.44-2.48a2.29,2.29,0,0,1,2.29-2.51C582.3,47.81,583.1,48.94,583.41,50.35Z"/><path class="cls-1" d="M996.3,249.89A2.68,2.68,0,0,1,999,252.3c.2,1.55-.66,2.33-2.19,2.37s-2.5-.44-2.52-2.07S995.24,250.42,996.3,249.89Z"/><path class="cls-1" d="M46.46,363.79a2.51,2.51,0,0,1,2.17-2.6,2.17,2.17,0,0,1,2.49,2.25,2.12,2.12,0,0,1-2.31,2.41A2,2,0,0,1,46.46,363.79Z"/><path class="cls-1" d="M523.74,19.16a2.47,2.47,0,0,1-2.19,2.56,2.16,2.16,0,0,1-2.47-2.23,2.36,2.36,0,0,1,2.42-2.38C522.85,17,523.62,17.72,523.74,19.16Z"/><path class="cls-1" d="M506.28,343.61c-1.2-.05-1.87-1.12-1.82-2.46a2.34,2.34,0,1,1,4.63.65C509,343.23,508,343.63,506.28,343.61Z"/><path class="cls-1" d="M1010.53,205.32c-1.35-.42-2.33-1.14-2.28-2.39a2.29,2.29,0,0,1,4.57,0C1012.8,204.35,1011.7,205,1010.53,205.32Z"/><path class="cls-1" d="M1106.91,144.11c0-1.67.59-2.58,2-2.61,1.61,0,2.18.95,2.15,2.42a1.92,1.92,0,0,1-2.15,2.09C1107.65,146,1106.84,145.17,1106.91,144.11Z"/><path class="cls-1" d="M1208.13,145.92c-.27,1.15-.67,2.33-2.08,2.31a2.24,2.24,0,0,1-2.26-2.16,2,2,0,0,1,2-2.28A2.33,2.33,0,0,1,1208.13,145.92Z"/><path class="cls-1" d="M327.85,215.83c-2.08-.15-3.11-.61-2.91-2.09.16-1.17.75-2.23,2.2-2.05,1.22.16,2.25.84,2.19,2.15S328.46,215.9,327.85,215.83Z"/><path class="cls-1" d="M1303.65,212.85c-.29,1.48-.93,2.28-2.35,2.23-1.15-.05-2.16-.41-2.18-1.68a2.26,2.26,0,0,1,2.1-2.33C1302.59,210.89,1303.16,212,1303.65,212.85Z"/><path class="cls-1" d="M267.63,21.31c.11,1.64-.73,2.31-1.81,2.4a1.93,1.93,0,0,1-2.28-2,2,2,0,0,1,1.94-2.33C266.85,19.35,267.33,20.5,267.63,21.31Z"/><path class="cls-1" d="M388.75,271.32a1.9,1.9,0,0,1-2-2.23c.11-1.42,1.07-1.87,2.36-1.87s1.78.74,1.71,2A2,2,0,0,1,388.75,271.32Z"/><path class="cls-1" d="M106.17,44.63c-1.13-.31-2.07-.79-1.93-2.1s.83-2.36,2.16-2.22a2.18,2.18,0,0,1,1.89,2.51C108.21,44.13,107.21,44.45,106.17,44.63Z"/><path class="cls-1" d="M95.78,271.15c0,1.4-.64,2.16-1.86,2.23a1.85,1.85,0,0,1-2.2-2,1.8,1.8,0,0,1,1.83-2A1.88,1.88,0,0,1,95.78,271.15Z"/><path class="cls-1" d="M1260.84,333.27a1.89,1.89,0,0,1,1.86,2.32,1.81,1.81,0,0,1-2.13,1.72,1.85,1.85,0,0,1-1.88-2.31C1258.81,333.78,1259.63,333.27,1260.84,333.27Z"/><path class="cls-1" d="M1290.58,353.25c-.12,1.55-.91,2.22-2.27,2.12a1.81,1.81,0,0,1-1.8-2.06,2,2,0,0,1,4.07-.06Z"/><path class="cls-1" d="M198.77,238.62a1.88,1.88,0,0,1-2.09,2.1,1.8,1.8,0,0,1-2-1.89,2,2,0,1,1,4.06-.21Z"/><path class="cls-1" d="M739.55,17.12a2.24,2.24,0,0,1,2.28,2.31c0,1.2-.77,1.77-2,1.79a1.93,1.93,0,0,1-2.13-1.78C737.52,18,738.67,17.57,739.55,17.12Z"/><path class="cls-1" d="M122.88,89.73c-.35,1.27-1,2.2-2.33,2.22s-1.76-.92-1.71-2.09a2,2,0,0,1,4-.13Z"/><path class="cls-1" d="M502.11,189.05a2.48,2.48,0,0,1-2.18,2.25c-1.27.14-1.82-.75-1.84-1.93a1.8,1.8,0,0,1,1.84-2A1.83,1.83,0,0,1,502.11,189.05Z"/><path class="cls-1" d="M1074.8,273.15a1.85,1.85,0,0,1-2.24,1.62,1.82,1.82,0,0,1-1.77-2.09c0-1.18.64-2,1.91-1.83A2.46,2.46,0,0,1,1074.8,273.15Z"/><path class="cls-1" d="M1278.71,355.35a1.5,1.5,0,0,1-1.77,1.32,2,2,0,0,1-2-2.26,1.92,1.92,0,0,1,2.17-1.73C1278.46,352.73,1278.84,353.5,1278.71,355.35Z"/><path class="cls-1" d="M1186.83,270.91a2.23,2.23,0,0,1-1.78,2.24,1.92,1.92,0,1,1-.51-3.8A1.86,1.86,0,0,1,1186.83,270.91Z"/><path class="cls-1" d="M28.54,169.69a2,2,0,0,1-2-1.9,1.76,1.76,0,0,1,1.59-2,1.83,1.83,0,0,1,2.23,1.65C30.55,168.8,29.67,169.33,28.54,169.69Z"/><path class="cls-1" d="M102.67,171.43a1.76,1.76,0,0,1-1.92,1.9c-1,0-1.86-.37-2-1.44a2,2,0,0,1,1.88-2.36C101.79,169.43,102.35,170.43,102.67,171.43Z"/><path class="cls-1" d="M474.33,63.65a1.86,1.86,0,0,1-2.15,1.75,1.91,1.91,0,0,1,.26-3.81A1.85,1.85,0,0,1,474.33,63.65Z"/><path class="cls-1" d="M903.5,254.46a2,2,0,0,1-1.94,2,1.76,1.76,0,0,1-1.94-1.61,1.81,1.81,0,0,1,1.68-2.2C902.64,252.49,903.12,253.4,903.5,254.46Z"/><path class="cls-1" d="M507.66,235.28c1.15,0,2.07.46,2.06,1.73a2,2,0,0,1-1.84,2.09,2,2,0,0,1-2-1.88C505.66,236,506.51,235.42,507.66,235.28Z"/><path class="cls-1" d="M614,37.91c-.36,1.08-1,2-2.2,1.78a1.82,1.82,0,0,1-1.69-2.21,1.77,1.77,0,0,1,1.93-1.61C613.4,35.89,613.81,36.81,614,37.91Z"/><path class="cls-1" d="M401.9,55c-.28,1.38-1.21,1.66-2.31,1.67s-1.8-.43-1.69-1.6a1.87,1.87,0,0,1,2.37-1.8A1.71,1.71,0,0,1,401.9,55Z"/><path class="cls-1" d="M971.18,98.19c0,1.15-.44,2.07-1.7,2.08s-1.7-.93-1.72-2.08c0-1,.18-1.85,1.42-1.85A1.83,1.83,0,0,1,971.18,98.19Z"/><path class="cls-1" d="M960.58,15.87a1.93,1.93,0,0,1,2,1.87,2,2,0,0,1-2,2c-1.1.09-1.67-.64-1.79-1.66C958.59,16.73,959.46,16.22,960.58,15.87Z"/><path class="cls-1" d="M1106.13,14.07a2,2,0,0,1-2.51,1.49,1.54,1.54,0,0,1-1.4-2c.29-1.25,1.28-1.52,2.41-1.31A1.71,1.71,0,0,1,1106.13,14.07Z"/><path class="cls-1" d="M1099.92,86.53c-.06,1.07-.49,1.88-1.58,1.93-1.29.07-1.82-.78-1.81-2,0-1,.48-1.83,1.56-1.89C1099.39,84.54,1099.86,85.41,1099.92,86.53Z"/><path class="cls-1" d="M446.44,275.83a1.77,1.77,0,0,1-1.82,1.73c-1.17.06-2.11-.42-2.11-1.68s.94-1.73,2.11-1.67A1.76,1.76,0,0,1,446.44,275.83Z"/><path class="cls-1" d="M606.56,281.66c-.1,1.27-.57,2.06-1.65,2.07-1.28,0-1.77-.87-1.74-2.05a1.64,1.64,0,0,1,1.61-1.83C606.09,279.82,606.47,280.77,606.56,281.66Z"/><path class="cls-1" d="M58.21,29.57c-.07,1.12-.55,2-1.84,1.92-1.09-.07-1.56-.86-1.56-1.89,0-1.19.54-2,1.82-2C57.72,27.69,58.15,28.5,58.21,29.57Z"/><path class="cls-1" d="M731.82,51.1c-.09,1.17-.58,2-1.88,1.93-1.1-.08-1.53-.9-1.54-1.92s.42-1.85,1.52-1.93C731.22,49.08,731.73,49.92,731.82,51.1Z"/><path class="cls-1" d="M1048.81,350a1.82,1.82,0,0,1,1.67,2.15c-.06,1-.6,1.81-1.67,1.78-1.27,0-1.74-.95-1.68-2.12A1.74,1.74,0,0,1,1048.81,350Z"/><path class="cls-1" d="M1223.71,149.39a1.75,1.75,0,0,1-1.79,1.71c-1.17.07-2.09-.38-2.14-1.66,0-1.08.71-1.64,1.75-1.71A1.82,1.82,0,0,1,1223.71,149.39Z"/><path class="cls-1" d="M378.3,338c0,1.11-.48,2-1.76,2-1.08,0-1.59-.8-1.61-1.83s.47-2.06,1.74-2C377.75,336.16,378.22,337,378.3,338Z"/><path class="cls-1" d="M480.51,155.86a1.84,1.84,0,0,1-2.29,1.47c-1-.13-1.73-.72-1.59-1.82.16-1.27,1.12-1.64,2.26-1.51A1.66,1.66,0,0,1,480.51,155.86Z"/><path class="cls-1" d="M285.56,349.28c-.27,1.09-.71,2-2,1.93-1.06-.06-1.8-.6-1.78-1.69s.77-1.62,1.82-1.65S285.39,348.13,285.56,349.28Z"/><path class="cls-1" d="M1218.79,108.78a1.63,1.63,0,0,1,1.81,1.68,1.57,1.57,0,0,1-1.74,1.72,1.78,1.78,0,0,1-1.93-2C1216.91,109,1217.78,108.76,1218.79,108.78Z"/><path class="cls-1" d="M212.07,35.08c-1,0-1.86-.43-2-1.52-.12-1.31.72-1.85,1.92-1.87a1.78,1.78,0,0,1,1.8,1.76C214,34.61,213.09,35,212.07,35.08Z"/><path class="cls-1" d="M1156.25,36.89c-.28,1.16-.86,2-2,2.1a1.73,1.73,0,0,1-1.81-1.67,1.78,1.78,0,0,1,1.89-1.94A1.85,1.85,0,0,1,1156.25,36.89Z"/><path class="cls-1" d="M944.56,143.72a1.69,1.69,0,0,1,1.55,2,1.68,1.68,0,1,1-3.36,0C942.67,144.38,943.67,144.06,944.56,143.72Z"/><path class="cls-1" d="M257.91,207.14c-.06,1.52-.91,2-1.79,2.1-1.36.11-1.65-1-1.58-2.05.05-.84.44-1.62,1.42-1.56S257.84,206.29,257.91,207.14Z"/><path class="cls-1" d="M48.34,287.37c1.31.11,2.16.56,2.11,1.85a1.47,1.47,0,0,1-1.55,1.48,2.11,2.11,0,0,1-2.17-1.78C46.54,287.76,47.56,287.52,48.34,287.37Z"/><path class="cls-1" d="M1182.5,298c-.44,1-1.09,1.78-2.23,1.74a1.48,1.48,0,0,1-1.53-1.81c.19-1.25,1.15-1.58,2.27-1.46A1.47,1.47,0,0,1,1182.5,298Z"/><path class="cls-1" d="M361.72,47a1.59,1.59,0,0,1,1.56,1.88,1.57,1.57,0,0,1-2,1.48c-1-.15-1.74-.73-1.6-1.86S360.68,47,361.72,47Z"/><path class="cls-1" d="M877.24,329.29c0,1.06-.33,1.82-1.54,1.75a1.74,1.74,0,0,1-1.81-1.69c-.12-1.16.49-1.66,1.62-1.67S877.25,328.13,877.24,329.29Z"/><path class="cls-1" d="M1055.89,35.16c-.28,1-.85,1.72-1.85,1.75a1.8,1.8,0,1,1,.13-3.6A2,2,0,0,1,1055.89,35.16Z"/><path class="cls-1" d="M263.7,338a1.88,1.88,0,0,1-2.17-1.69c-.11-.87.13-1.74,1.23-1.55s2.37.5,2.55,1.86C265.44,337.64,264.53,337.9,263.7,338Z"/><path class="cls-1" d="M924.9,66.06c-.2,1-.64,1.69-1.77,1.66s-1.8-.48-1.87-1.55c-.07-1.27.75-1.8,1.93-1.83S924.72,65.09,924.9,66.06Z"/><path class="cls-1" d="M839.61,125.14c-.21,1-.77,1.67-1.86,1.53a1.68,1.68,0,0,1-1.48-1.93c0-1,.4-1.94,1.53-1.76A2.22,2.22,0,0,1,839.61,125.14Z"/><path class="cls-1" d="M314.53,44.63a1.68,1.68,0,0,1-1.53-2,1.68,1.68,0,1,1,3.34.44C316.18,44.15,315.23,44.33,314.53,44.63Z"/><path class="cls-1" d="M313.56,337.47c-.2,1.33-1.16,1.32-2.1,1.24s-1.35-.79-1.21-1.71.78-1.71,1.89-1.53S313.59,336.48,313.56,337.47Z"/><path class="cls-1" d="M111.75,7.26c-1,0-1.77-.5-1.87-1.57a1.58,1.58,0,0,1,1.6-1.78c1.11-.14,1.7.4,1.73,1.52S112.94,7.21,111.75,7.26Z"/><path class="cls-1" d="M1164.55,222.45a1.72,1.72,0,0,1-1.9,1.59c-1.27,0-1.47-.87-1.43-1.9a1.32,1.32,0,0,1,1.55-1.43A1.71,1.71,0,0,1,1164.55,222.45Z"/><path class="cls-1" d="M467.08,119.11c-1.28.07-1.75-.57-1.74-1.68,0-.9.29-1.6,1.34-1.64s1.85.4,2,1.51S468,118.93,467.08,119.11Z"/><path class="cls-1" d="M859.15,306.32c0,1.06-.29,1.85-1.52,1.8a1.65,1.65,0,0,1-1.79-1.7,1.57,1.57,0,0,1,1.52-1.59C858.49,304.66,859.12,305.14,859.15,306.32Z"/><path class="cls-1" d="M487.52,254.37c0,1.4-.74,1.71-1.81,1.68s-1.54-.45-1.52-1.46.53-1.82,1.63-1.84A1.62,1.62,0,0,1,487.52,254.37Z"/><path class="cls-1" d="M537.23,308.32a1.69,1.69,0,0,1,1.78,1.73,1.31,1.31,0,0,1-1.39,1.58c-1,0-1.9-.09-1.93-1.38A1.72,1.72,0,0,1,537.23,308.32Z"/><path class="cls-1" d="M183.38,228.07a1.74,1.74,0,0,1-2,1.53c-1.29,0-1.41-1-1.35-2a1.31,1.31,0,0,1,1.6-1.37A1.68,1.68,0,0,1,183.38,228.07Z"/><path class="cls-1" d="M852.86,68.61c-.08,1-.6,1.81-1.69,1.8s-1.64-.77-1.66-1.84.56-1.44,1.51-1.48S852.85,67.37,852.86,68.61Z"/><path class="cls-1" d="M1275.52,55.33c1.36-.09,2,.48,2.12,1.5a1.53,1.53,0,0,1-1.53,1.83c-1.13.09-1.66-.67-1.87-1.6C1274,55.86,1274.86,55.54,1275.52,55.33Z"/><path class="cls-1" d="M1010.71,97.06c.95.21,1.79.73,1.79,1.74a1.53,1.53,0,0,1-1.8,1.59c-1.05-.07-1.77-.61-1.77-1.68S1009.61,97.09,1010.71,97.06Z"/><path class="cls-1" d="M60,243.46a1.71,1.71,0,0,1-1.72-1.74c-.07-.91.33-1.53,1.33-1.54a1.66,1.66,0,0,1,1.92,1.47C61.7,242.74,61,243.29,60,243.46Z"/><path class="cls-1" d="M1094.33,16c-.17,1-.69,1.73-1.79,1.64a1.48,1.48,0,0,1-1.48-1.85,1.65,1.65,0,0,1,2-1.42C1094.06,14.37,1094.36,15,1094.33,16Z"/><path class="cls-1" d="M262.13,135.23c1,0,1.81.39,1.94,1.47a1.48,1.48,0,0,1-1.54,1.79c-1.07,0-1.63-.68-1.72-1.69A1.27,1.27,0,0,1,262.13,135.23Z"/><path class="cls-1" d="M732.8,137.37a1.71,1.71,0,0,1,1.76,1.72c.07.91-.31,1.55-1.32,1.57a1.65,1.65,0,0,1-1.94-1.45C731.16,138.12,731.8,137.55,732.8,137.37Z"/><path class="cls-1" d="M718.55,305.72c-.17,1-.68,1.72-1.77,1.63a1.47,1.47,0,0,1-1.47-1.84,1.68,1.68,0,0,1,2-1.41C718.31,304.15,718.59,304.82,718.55,305.72Z"/><path class="cls-1" d="M870.2,38.16a1.72,1.72,0,0,1-1.73,1.76c-.91.07-1.55-.32-1.58-1.32s.39-1.81,1.47-1.94S870,37.16,870.2,38.16Z"/><path class="cls-1" d="M1051.12,338.55a1.74,1.74,0,0,1-1.89,1.53,1.24,1.24,0,0,1-1.39-1.48,1.64,1.64,0,0,1,1.63-1.78A1.56,1.56,0,0,1,1051.12,338.55Z"/><path class="cls-1" d="M534.85,327.83c-.1,1-.59,1.77-1.65,1.77a1.49,1.49,0,0,1-1.62-1.73,1.67,1.67,0,0,1,1.88-1.54C534.46,326.32,534.86,326.89,534.85,327.83Z"/><path class="cls-1" d="M793.07,76.15c1,0,1.81.39,1.94,1.48a1.48,1.48,0,0,1-1.54,1.8,1.62,1.62,0,0,1-1.72-1.7A1.28,1.28,0,0,1,793.07,76.15Z"/><path class="cls-1" d="M230.12,274.21c1,0,1.8.4,1.93,1.48a1.47,1.47,0,0,1-1.54,1.79c-1.07,0-1.62-.69-1.71-1.7A1.26,1.26,0,0,1,230.12,274.21Z"/><path class="cls-1" d="M736.66,105.12c0,.94-.42,1.51-1.41,1.5a1.65,1.65,0,0,1-1.87-1.54,1.51,1.51,0,0,1,1.63-1.74C736.07,103.35,736.58,104.09,736.66,105.12Z"/><path class="cls-1" d="M704.36,139.94a1.59,1.59,0,0,1-1.61-1.48,1.51,1.51,0,0,1,1.6-1.78,1.47,1.47,0,0,1,1.6,1.44C706.05,139.23,705.38,139.77,704.36,139.94Z"/><path class="cls-1" d="M384.43,10a1.58,1.58,0,0,1-1.78-1.64,1.47,1.47,0,0,1,1.46-1.59,1.53,1.53,0,0,1,1.78,1.61A1.56,1.56,0,0,1,384.43,10Z"/><path class="cls-1" d="M1186.12,79.53c0,1.15-.4,1.8-1.29,2a1.61,1.61,0,1,1-.32-3.19A1.61,1.61,0,0,1,1186.12,79.53Z"/><path class="cls-1" d="M1302.22,13.2a1.54,1.54,0,0,1-1.5,1.68c-1.13.12-1.76-.4-1.7-1.55a1.61,1.61,0,0,1,1.41-1.68C1301.69,11.47,1301.82,12.56,1302.22,13.2Z"/><path class="cls-1" d="M1170.12,61a1.59,1.59,0,0,1-1.64,1.82,1.62,1.62,0,0,1-.33-3.2A1.59,1.59,0,0,1,1170.12,61Z"/><path class="cls-1" d="M1076.17,294.12a1.53,1.53,0,0,1-1.61,1.44,1.51,1.51,0,0,1-1.6-1.77,1.48,1.48,0,0,1,1.59-1.45A1.57,1.57,0,0,1,1076.17,294.12Z"/><path class="cls-1" d="M1026.75,33.73a1.56,1.56,0,0,1-2.09,1.19,1.47,1.47,0,0,1-1.08-1.87,1.52,1.52,0,0,1,2.07-1.21A1.55,1.55,0,0,1,1026.75,33.73Z"/><path class="cls-1" d="M309.82,309c1,.16,1.67.7,1.58,1.81a1.47,1.47,0,0,1-1.6,1.44,1.51,1.51,0,0,1-1.59-1.78A1.58,1.58,0,0,1,309.82,309Z"/><path class="cls-1" d="M843.06,40.16a1.56,1.56,0,0,1-1.63,1.77,1.48,1.48,0,0,1-1.59-1.45,1.51,1.51,0,0,1,1.61-1.77A1.54,1.54,0,0,1,843.06,40.16Z"/><path class="cls-1" d="M131.37,138.05a1.28,1.28,0,0,1,1.5-1.42c1,.07,1.83.5,1.61,1.69-.15.79-.55,1.61-1.52,1.57S131.41,139.09,131.37,138.05Z"/><path class="cls-1" d="M960.66,312.21a1.55,1.55,0,0,1-1.62,1.42,1.61,1.61,0,1,1,.33-3.18A1.56,1.56,0,0,1,960.66,312.21Z"/><path class="cls-1" d="M350.41,226.54a1.59,1.59,0,0,1-1.47,1.61,1.52,1.52,0,0,1-1.78-1.6A1.47,1.47,0,0,1,348.6,225C349.7,224.87,350.25,225.52,350.41,226.54Z"/><path class="cls-1" d="M515.3,276.15a1.83,1.83,0,0,1-2.21,1.37c-1-.15-1.21-.94-1-1.79.22-1.05.84-1.62,2-1.18C514.81,274.85,515.44,275.31,515.3,276.15Z"/><path class="cls-1" d="M941.17,318.8a1.56,1.56,0,0,1-1.62,1.78,1.47,1.47,0,0,1-1.59-1.45,1.51,1.51,0,0,1,1.6-1.77A1.54,1.54,0,0,1,941.17,318.8Z"/><path class="cls-1" d="M910.44,171.36c.94,0,1.56.35,1.56,1.36s-.41,1.88-1.55,1.78c-.76-.07-1.63-.44-1.69-1.41C908.68,172,909.44,171.51,910.44,171.36Z"/><path class="cls-1" d="M871.62,199.37c-.12,1-.55,1.6-1.48,1.68a1.61,1.61,0,1,1,0-3.2A1.6,1.6,0,0,1,871.62,199.37Z"/><path class="cls-1" d="M885.55,94.46c-.18,1.09-.73,1.74-1.83,1.65a1.48,1.48,0,0,1-1.44-1.59,1.5,1.5,0,0,1,1.44-1.6C884.85,92.81,885.34,93.51,885.55,94.46Z"/><path class="cls-1" d="M972.43,334.48a1.57,1.57,0,0,1-1.78-1.62,1.47,1.47,0,0,1,1.45-1.59,1.51,1.51,0,0,1,1.77,1.6A1.54,1.54,0,0,1,972.43,334.48Z"/><path class="cls-1" d="M132.61,291.17a1.6,1.6,0,0,1-1.48,1.6,1.52,1.52,0,0,1-1.77-1.6,1.46,1.46,0,0,1,1.45-1.59C131.91,289.5,132.45,290.14,132.61,291.17Z"/><path class="cls-1" d="M138.9,227.91c-.1.7-.38,1.52-1.38,1.48s-1.89-.43-1.87-1.56.81-1.56,1.86-1.57S138.94,226.81,138.9,227.91Z"/><path class="cls-1" d="M1048.92,76.22a1.73,1.73,0,0,1,1.56,1.91,1.26,1.26,0,0,1-1.52,1.39c-.86-.06-1.65-.42-1.61-1.4A1.77,1.77,0,0,1,1048.92,76.22Z"/><path class="cls-1" d="M369.9,41c-.16,1-.72,1.68-1.83,1.58A1.47,1.47,0,0,1,366.63,41a1.51,1.51,0,0,1,1.79-1.59A1.58,1.58,0,0,1,369.9,41Z"/><path class="cls-1" d="M264.14,96.6a1.59,1.59,0,0,1-1.48,1.61,1.54,1.54,0,0,1-1.8-1.61,1.48,1.48,0,0,1,1.46-1.6C263.43,94.91,264,95.55,264.14,96.6Z"/><path class="cls-1" d="M1118,12.64c0,.95-.36,1.57-1.38,1.57s-1.7-.28-1.76-1.26a1.77,1.77,0,0,1,1.67-1.87C1117.51,11,1117.89,11.76,1118,12.64Z"/><path class="cls-1" d="M920.86,179.62a1.55,1.55,0,0,1-1.72,1.35,1.27,1.27,0,0,1-1.44-1.49c0-.87.38-1.7,1.37-1.63A2,2,0,0,1,920.86,179.62Z"/><path class="cls-1" d="M210.75,76.15c.86.08,1.7.34,1.68,1.34a1.78,1.78,0,0,1-1.74,1.8c-1,.06-1.35-.77-1.39-1.64A1.29,1.29,0,0,1,210.75,76.15Z"/><path class="cls-1" d="M522.34,127.27a1.59,1.59,0,0,1-1.28-1.79c0-1,.62-1.43,1.56-1.36s1.67.47,1.55,1.44A1.93,1.93,0,0,1,522.34,127.27Z"/><path class="cls-1" d="M239.11,32.54c1,.2,1.73.7,1.67,1.75a1.47,1.47,0,0,1-1.55,1.47,1.49,1.49,0,0,1-1.67-1.34C237.39,33.31,238.2,32.87,239.11,32.54Z"/><path class="cls-1" d="M59.38,319.28a2,2,0,0,1-1.74,1.82c-1,.11-1.35-.72-1.42-1.58s.36-1.55,1.39-1.53A1.58,1.58,0,0,1,59.38,319.28Z"/><path class="cls-1" d="M802.62,301.87c-.32,1.06-.86,1.83-1.88,1.85s-1.3-.81-1.33-1.67.52-1.46,1.49-1.44A1.72,1.72,0,0,1,802.62,301.87Z"/><path class="cls-1" d="M318.42,109c-.12,1-.54,1.68-1.53,1.55-.78-.1-1.66-.44-1.71-1.41a1.48,1.48,0,0,1,1.72-1.67A1.61,1.61,0,0,1,318.42,109Z"/><path class="cls-1" d="M97.85,234.5a1.28,1.28,0,0,1-1.57,1.36c-.87-.07-1.68-.47-1.55-1.44a1.77,1.77,0,0,1,1.86-1.66C97.57,232.81,97.81,233.64,97.85,234.5Z"/><path class="cls-1" d="M795.08,86.15a1.57,1.57,0,0,1-1.47,1.64,1.48,1.48,0,0,1-1.77-1.62c0-1,.9-1.34,1.68-1.46C794.48,84.57,795,85.25,795.08,86.15Z"/><path class="cls-1" d="M1022.67,208.89a1.28,1.28,0,0,1,1.36,1.57c-.07.87-.47,1.68-1.44,1.55a1.79,1.79,0,0,1-1.67-1.86C1021,209.17,1021.81,208.94,1022.67,208.89Z"/><path class="cls-1" d="M1027.52,330.58c-.1.85-.37,1.69-1.37,1.63a1.8,1.8,0,0,1-1.76-1.77c0-1,.81-1.3,1.67-1.33S1027.53,329.6,1027.52,330.58Z"/><path class="cls-1" d="M647.55,311.73a1.28,1.28,0,0,1,1.41,1.52c-.06.86-.41,1.69-1.4,1.59a1.79,1.79,0,0,1-1.72-1.81C645.85,312,646.7,311.8,647.55,311.73Z"/><path class="cls-1" d="M689.15,179.66A1.57,1.57,0,0,1,687.4,181a1.27,1.27,0,0,1-1.42-1.52c.06-.86.42-1.68,1.41-1.59A2,2,0,0,1,689.15,179.66Z"/><path class="cls-1" d="M1016.35,214.72a1.57,1.57,0,0,1-1.49,1.62c-.91.07-1.71-.37-1.59-1.36a1.81,1.81,0,0,1,1.86-1.7C1016,213.29,1016.26,214,1016.35,214.72Z"/><path class="cls-1" d="M776.08,161.3c.87.17,1.56.54,1.62,1.52a1.26,1.26,0,0,1-1.47,1.48c-.88,0-1.68-.37-1.67-1.36A1.78,1.78,0,0,1,776.08,161.3Z"/><path class="cls-1" d="M854.8,302.44c-.17,1.06-.67,1.74-1.54,1.81a1.45,1.45,0,0,1-1.64-1.4,1.25,1.25,0,0,1,1.39-1.54A1.8,1.8,0,0,1,854.8,302.44Z"/><path class="cls-1" d="M1118.14,305a1.6,1.6,0,0,1,1.57-1.56c.91,0,1.7.47,1.52,1.45a1.83,1.83,0,0,1-2,1.62C1118.48,306.45,1118.19,305.77,1118.14,305Z"/><path class="cls-1" d="M650.05,304.8c1,.15,1.62.66,1.64,1.59s-.47,1.7-1.44,1.51a1.82,1.82,0,0,1-1.63-1.94C648.69,305.16,649.4,304.9,650.05,304.8Z"/><path class="cls-1" d="M632,88.7c.88.13,1.6.59,1.4,1.51a1.84,1.84,0,0,1-1.89,1.6,1.29,1.29,0,0,1-1.18-1.4A1.6,1.6,0,0,1,632,88.7Z"/><path class="cls-1" d="M646.71,53.8a2,2,0,0,1-1.64,1.86c-.92.19-1.45-.51-1.48-1.4a1.48,1.48,0,0,1,1.35-1.64A1.45,1.45,0,0,1,646.71,53.8Z"/><path class="cls-1" d="M799.46,284.43a1.48,1.48,0,0,1-1.77-1.5,1.41,1.41,0,0,1,1.33-1.69,1.46,1.46,0,0,1,1.59,1.49A1.65,1.65,0,0,1,799.46,284.43Z"/><path class="cls-1" d="M757.51,156.14c-.08,1-.42,1.77-1.39,1.68a1.87,1.87,0,0,1-1.74-1.76c-.08-.78.53-1.21,1.26-1.3A1.65,1.65,0,0,1,757.51,156.14Z"/><path class="cls-1" d="M1252.28,18.34a1.26,1.26,0,0,1-1.5,1.43c-.87-.05-1.64-.39-1.59-1.42,0-.81.67-1.16,1.41-1.24C1251.51,17,1252.19,17.28,1252.28,18.34Z"/><path class="cls-1" d="M1028.69,319.25c-.07,1-.76,1.32-1.62,1.38a1.22,1.22,0,0,1-1.47-1.08c-.11-.94.29-1.55,1.32-1.56A1.57,1.57,0,0,1,1028.69,319.25Z"/><path class="cls-1" d="M647.36,221.4a1.56,1.56,0,0,1-1.79,1.25c-1,0-1.42-.64-1.31-1.58S645,220,645.75,220,647.3,220.41,647.36,221.4Z"/><path class="cls-1" d="M905.36,82.34c-.33.9-.79,1.53-1.77,1.21a1.47,1.47,0,0,1-1.12-1.8c.19-.85.71-1.48,1.68-1.11C904.89,80.93,905.5,81.46,905.36,82.34Z"/><path class="cls-1" d="M1039.23,232.41c-.84-.14-1.66-.39-1.58-1.42s.87-1.25,1.74-1.24a1.19,1.19,0,0,1,1.33,1.23C1040.76,232,1040.18,232.4,1039.23,232.41Z"/><path class="cls-1" d="M203.65,46.42c-.14.85-.41,1.66-1.45,1.58s-1.26-.89-1.25-1.76a1.21,1.21,0,0,1,1.26-1.33C203.25,44.87,203.64,45.47,203.65,46.42Z"/><path class="cls-1" d="M614.5,282.2a1.83,1.83,0,0,1,1.56,1.56c.08.95-.65,1.41-1.53,1.39a1.49,1.49,0,0,1-1.55-1.47C612.92,282.68,613.7,282.4,614.5,282.2Z"/><path class="cls-1" d="M494.11,196.91c-.9-.16-1.52-.66-1.49-1.6s.77-1.08,1.5-1,1.64.49,1.52,1.5C495.55,196.57,494.88,196.9,494.11,196.91Z"/><path class="cls-1" d="M1090.82,138.42a1.47,1.47,0,0,1-1.17-1.79c.12-.74.62-1.32,1.39-1.2s1.57.68,1.46,1.59A1.68,1.68,0,0,1,1090.82,138.42Z"/><path class="cls-1" d="M249.33,240.9c.74.11,1.39.43,1.37,1.26,0,1-.81,1.32-1.67,1.35s-1.42-.24-1.34-1.17A1.52,1.52,0,0,1,249.33,240.9Z"/><path class="cls-1" d="M785.32,282.74c0,.77-.34,1.43-1.11,1.53-1,.12-1.41-.64-1.5-1.52s.1-1.47,1-1.5S785.16,281.83,785.32,282.74Z"/><path class="cls-1" d="M178.52,110.67c-.14.73-.49,1.34-1.34,1.27-1-.1-1.28-.88-1.27-1.75s.37-1.38,1.26-1.25A1.51,1.51,0,0,1,178.52,110.67Z"/><path class="cls-1" d="M234.41,199.71c-.78,0-1.33-.29-1.4-1.1s.34-1.52,1.35-1.49a1.3,1.3,0,0,1,0,2.59Z"/><path class="cls-1" d="M585.18,306.55a1.31,1.31,0,0,1-1.4-1.16,1.36,1.36,0,0,1,1.07-1.77c.77-.15,1.25.41,1.4,1.12A1.45,1.45,0,0,1,585.18,306.55Z"/><path class="cls-1" d="M781.85,101.41c-.09.85-.41,1.56-1.4,1.5a1.26,1.26,0,0,1-1.18-1.38c0-.87.39-1.57,1.38-1.52C781.42,100.06,781.75,100.67,781.85,101.41Z"/><path class="cls-1" d="M747.61,205.32a1.73,1.73,0,0,1-1.43,1.66,1.28,1.28,0,0,1-1.36-1.26,1.38,1.38,0,0,1,1.35-1.63A1.36,1.36,0,0,1,747.61,205.32Z"/><path class="cls-1" d="M529.6,177.82a1.49,1.49,0,0,1,2.93-.42c.15.77-.4,1.24-1.12,1.4A1.5,1.5,0,0,1,529.6,177.82Z"/><path class="cls-1" d="M724.35,162.88c-.77,0-1.35-.25-1.45-1s.28-1.54,1.29-1.54a1.16,1.16,0,0,1,1.29,1.21A1.17,1.17,0,0,1,724.35,162.88Z"/><path class="cls-1" d="M637.81,16.43a1.15,1.15,0,0,1-1.31,1.21c-1,0-1.4-.64-1.28-1.55a1.31,1.31,0,0,1,2.59.34Z"/><path class="cls-1" d="M572.3,33c-.34,1-.93,1.45-1.84,1.28-.72-.13-1.28-.6-1.15-1.38a1.36,1.36,0,0,1,1.74-1.13A1.53,1.53,0,0,1,572.3,33Z"/><path class="cls-1" d="M687.07,128.31a1.42,1.42,0,0,1-1.76,1.16c-.72-.12-1.3-.56-1.19-1.35a1.33,1.33,0,0,1,1.72-1.15A1.31,1.31,0,0,1,687.07,128.31Z"/><path class="cls-1" d="M808.57,36.43c-.77,0-1.37-.25-1.47-1.06s.29-1.54,1.31-1.55a1.16,1.16,0,0,1,1.3,1.22A1.18,1.18,0,0,1,808.57,36.43Z"/><path class="cls-1" d="M1039.47,122.42a1.49,1.49,0,0,1-.11-2.94c.79-.07,1.22.51,1.31,1.23A1.4,1.4,0,0,1,1039.47,122.42Z"/><path class="cls-1" d="M592.57,119.25c1,.1,1.42.59,1.39,1.38-.05,1-.71,1.35-1.61,1.22s-1.06-.76-1-1.5A1.17,1.17,0,0,1,592.57,119.25Z"/><path class="cls-1" d="M918.2,45.05c1.11.25,1.52.85,1.4,1.75A1.23,1.23,0,0,1,918.28,48c-.95-.09-1.31-.78-1.22-1.68A1.54,1.54,0,0,1,918.2,45.05Z"/><path class="cls-1" d="M685.83,58.13a1.17,1.17,0,0,1-1.32,1.21c-1,0-1.39-.65-1.28-1.56a1.31,1.31,0,0,1,2.6.35Z"/><path class="cls-1" d="M776.13,219.16c-.86-.06-1.57-.37-1.56-1.36a1.26,1.26,0,0,1,1.35-1.21c.88,0,1.58.35,1.57,1.33C777.48,218.71,776.86,219,776.13,219.16Z"/><path class="cls-1" d="M518.81,207.52a1.16,1.16,0,0,1-1.31,1.21c-1,0-1.39-.65-1.28-1.55a1.31,1.31,0,0,1,2.59.34Z"/><path class="cls-1" d="M422.52,75.84c-.5.81-.9,1.41-1.72,1.19s-1.51-.71-1.23-1.71c.2-.7.7-1.24,1.52-1A2,2,0,0,1,422.52,75.84Z"/><path class="cls-1" d="M1140.23,70.63a1.15,1.15,0,0,1-1.3,1.22c-1,0-1.4-.63-1.3-1.55s.7-1.11,1.46-1A1.17,1.17,0,0,1,1140.23,70.63Z"/><path class="cls-1" d="M1167,105.11c-.16.69-.4,1.34-1.21,1.41a1.42,1.42,0,0,1-1.65-1.3c-.15-.83.38-1.23,1.16-1.26S1166.89,104.07,1167,105.11Z"/><path class="cls-1" d="M407.47,106.57c-1.13,0-1.72-.5-1.83-1.4s.45-1.21,1.22-1.22,1.65.16,1.61,1.23A1.52,1.52,0,0,1,407.47,106.57Z"/><path class="cls-1" d="M381.75,58.63A1.19,1.19,0,0,1,380.64,60c-.95.08-1.54-.35-1.51-1.36a1.31,1.31,0,0,1,2.62,0Z"/><path class="cls-1" d="M459,21.79c0,.77-.24,1.38-1.15,1.34a1.39,1.39,0,0,1-1.4-1.26c-.13-.85.37-1.26,1.19-1.29A1.18,1.18,0,0,1,459,21.79Z"/><path class="cls-1" d="M1000.58,232.24c-1.11-.22-1.49-.83-1.41-1.73.05-.61.41-1.12,1.05-1.07.83.07,1.54.46,1.48,1.47A1.53,1.53,0,0,1,1000.58,232.24Z"/><path class="cls-1" d="M270.33,272.89c0,1-.58,1.21-1.36,1.17a1.18,1.18,0,0,1-1.18-1.35c0-.65.3-1.16.95-1.18A1.45,1.45,0,0,1,270.33,272.89Z"/><path class="cls-1" d="M404,127.42c0,.77-.23,1.38-1.14,1.34a1.39,1.39,0,0,1-1.39-1.26c-.14-.85.35-1.26,1.17-1.28A1.17,1.17,0,0,1,404,127.42Z"/><path class="cls-1" d="M316,153.14c-.23.79-.57,1.51-1.59,1.34a1.23,1.23,0,0,1-1.17-1.38,1.32,1.32,0,0,1,1.44-1.15C315.38,152,316,152.24,316,153.14Z"/><path class="cls-1" d="M808.15,84.51c1,0,1.49.36,1.53,1.2s-.22,1.38-1.11,1.35a1.42,1.42,0,0,1-1.41-1.25A1,1,0,0,1,808.15,84.51Z"/><path class="cls-1" d="M649.61,76.49c-.06.76-.37,1.38-1.2,1.42s-1.24-.51-1.32-1.28a1,1,0,0,1,1-1.15C648.84,75.4,649.48,75.57,649.61,76.49Z"/><path class="cls-1" d="M937.59,226.85a1.37,1.37,0,0,1-1.3,1.32c-.74.1-1.51-.15-1.46-1a1.56,1.56,0,0,1,1.63-1.43C937.11,225.74,937.44,226.23,937.59,226.85Z"/><path class="cls-1" d="M474.94,184.45c-.85-.09-1.26-.57-1.08-1.39a1.18,1.18,0,0,1,1.18-1,1.23,1.23,0,0,1,1.27,1.32C476.35,184.27,475.69,184.44,474.94,184.45Z"/><path class="cls-1" d="M1021.36,26.34a1.31,1.31,0,0,1,1.21,1.45c-.06.9-.76,1.07-1.49,1a1,1,0,0,1-1-1.14A1.27,1.27,0,0,1,1021.36,26.34Z"/><path class="cls-1" d="M844.43,275.43a1.48,1.48,0,0,1-1.63,1.34.9.9,0,0,1-.84-1.21,1.45,1.45,0,0,1,1.43-1.26C844.06,274.26,844.43,274.66,844.43,275.43Z"/><path class="cls-1" d="M605.75,87.69c-.07.71-.41,1.31-1.23,1.33s-1.22-.55-1.27-1.32.41-1,1-1.1S605.67,86.73,605.75,87.69Z"/><path class="cls-1" d="M149.2,199.66c-1-.07-1.17-.69-1.11-1.44s.39-1.09,1.09-1.05a1.24,1.24,0,0,1,1.33,1.26C150.5,199.24,149.91,199.59,149.2,199.66Z"/><path class="cls-1" d="M337.13,292.19c-.21.73-.65,1.28-1.45,1.11a1.28,1.28,0,0,1-1-1.55c.11-.67.66-.87,1.28-.85C336.79,290.92,337.2,291.33,337.13,292.19Z"/><path class="cls-1" d="M598.82,271.92c-.89,0-1.2-.48-1.21-1.28,0-.64.28-1.15.94-1.2a1.28,1.28,0,0,1,1.48,1.1C600.14,271.36,599.57,271.76,598.82,271.92Z"/><path class="cls-1" d="M164.45,172.61a1.28,1.28,0,0,1-1.25,1.32,1,1,0,0,1-1.18-1c-.1-.73,0-1.44.94-1.52A1.33,1.33,0,0,1,164.45,172.61Z"/><path class="cls-1" d="M819.3,279.54a.89.89,0,0,1-1-1,1.19,1.19,0,0,1,.92-1.25c.73-.16.94.39,1,1A1.1,1.1,0,0,1,819.3,279.54Z"/><path class="cls-1" d="M1155.27,90.29c0,.59-.17.93-.7,1-.72.1-1.41,0-1.55-.83-.11-.66.31-1,1-1A1.4,1.4,0,0,1,1155.27,90.29Z"/></svg>