<svg xmlns="http://www.w3.org/2000/svg" width="1920.1" height="331" viewBox="0 0 1920.1 331"><path d="M5.2,340c-4.4,0-5.2-.5-5.2-2.8Q.3,184.05.2,30.9a7.283,7.283,0,0,1,5.3-1.8c12.7-.8,25.2-1.4,37.8-2a64.3,64.3,0,0,0,7.6.2c7.4,0,15.2.8,22.1-.2a106.851,106.851,0,0,1,25.9-.7q9.15.9,18.3.9a23.311,23.311,0,0,1,5.3.2c5.2,1.8,11.1.9,16.7,1.3.6.1,1.3.2,1.9.3a88.04,88.04,0,0,0,17,2.3c9.9.3,19.9.7,29.5,2.4,4.5.8,7.9-.9,11.4-2.1,11.5-2.6,23.6-3.9,35.5-5.8,15.7-2.5,31.6-4.7,47.4-7.1,10.7-2.1,22-3.2,32.7-5.2,13.2-2.6,26.2-1.8,39.4-.2,12.2,1.5,24.6,2.7,37,3.7,8.6.9,17,2,24.2,5,4.3,3,4.8,3.1,10.1.3,7-3.7,13.6-7.6,20.7-11.2A15.826,15.826,0,0,1,453.6,9c11.7,1,22.7,3.5,33.9,5.4,7.2,1.2,14.8,2,21.3,4.3a9.821,9.821,0,0,1,4.7,6.2c1.8,5.4,4.2,10.8,6.3,16.1,1.1,1.3.2,2.7,1.7,4.4a9.261,9.261,0,0,0,.3-3.3c0-2.7-.7-5.5,6.9-5.2a4.8,4.8,0,0,0,3.6-1.5c1.7-1.9,4.8-2.8,8.3-3.4,7.3-1.2,14.8-1.7,22.3-2.4a29.228,29.228,0,0,1,9.8,1c16.5,4.2,33.3,7.8,49.5,12.3,9.3,2.3,19.1,2.7,29.1,2.8,20.6.3,41.2,1.5,61.9,1.3a93.908,93.908,0,0,0,10.6.4c12.7-.6,25.1,1.4,37.8.9a16.2,16.2,0,0,0,2.2-.1c11.2-.3,22.5.6,33.7.7,16.3,1.7,31.6-.6,46.6-3.7,8.9-1.5,17.7-3.1,26.5-4.7,3.3-.6,6.7-1.2,9.9-1.9a45,45,0,0,1,5.1-.8c5.6-1,11.2-2,16.7-3.2,7.5-1.3,14.9-2.7,22.3-4.1,8.2-1.9,16.9-3,25.2-4.6A101.456,101.456,0,0,1,962.1,24c6,.9,6.1,1.3,1.4,5.4a3.948,3.948,0,0,0-1.7,4.1c4.7-2.5,9.7-1.7,14.9-1.6,9.3.2,18.6.2,27.7,1.7a13.128,13.128,0,0,0,7.1-1.3c11.2-5.1,24.8-5.5,38.4-5.7,1.6,0,3.2.3,4.5-.4,4.8-2.6,9.8-1.7,14.8-.2,2.8.5,4.4,2,6.9,2.8,5.5,2.8,10.4,6.1,16.2,8.7a39.9,39.9,0,0,0,5.6,2.5c3.6,1.4,6.3,3.3,9.6,4.8,2.7,1.3,5.8,2.4,8.1,4,4.2,1.8,9,.5,13.4.6a50.469,50.469,0,0,0,11.7-1c21.2-1,42.6-1.5,63.8-2.9a85.805,85.805,0,0,0,15.3-2.6c13.9-3.3,26.9-7.7,41.9-9.5,10.5-.9,20.7.6,30.9,1.5,12.7,1.2,24.9,3.6,38,4.3,7.6.4,14.7,2.6,22.5,3.3,6.5.6,12.8,1.7,19.4,1.7a26.626,26.626,0,0,1,7.5,1c4.8,1.5,10.2,1.9,15.5,2.4a106.02,106.02,0,0,1,17,3c4.9,1.3,10.4.9,15.6,1.3,17.7,1.3,33.3-2.2,48.8-6.3,8.9-2.4,16.6-6,26.4-7.4a9.314,9.314,0,0,0,6.2-2.9,5.875,5.875,0,0,1,4.9-2c3.7.2,6.4-1.2,9.2-2.1,9.5-3.1,20.1-4.7,30.2-7.1,19.1-4.4,37.7-9.5,56.9-13.7a23.531,23.531,0,0,1,6.5.1c7.8,3.8,17.4,6,26.3,8.8,14.3,4.4,28,9.3,42.2,13.8a25.719,25.719,0,0,0,17.1,0c21-6.7,40.6-14.7,62-21.1a41.775,41.775,0,0,1,7.2-1.5c11,1.5,22.2,2.5,33,4.3,28.1,4.3,54.3,11.4,81.5,16.9,7.9,1.6,15.5,3.5,23.5,4.9a26.927,26.927,0,0,1,10,3.4q0,148.35.1,296.8c0,2.5-1,3-5.5,3" transform="translate(0 -9)" fill="#13132d"/></svg>