<svg xmlns="http://www.w3.org/2000/svg" width="626.333" height="226.725" viewBox="0 0 626.333 226.725"><g transform="translate(-38.937 -27.894)"><path d="M263.667,36.415a.68.68,0,0,1-.67-.68v-7.1a.68.68,0,1,1,1.354,0v7.1a.68.68,0,0,1-.685.68Z" transform="translate(-119.727)" fill="#13132d"/><path d="M263.715,36.362h-7.1a.68.68,0,1,1,0-1.354h7.1a.68.68,0,0,1,0,1.354Z" transform="translate(-116.218 -3.503)" fill="#13132d"/><path d="M87.828,266.369H58.684a1.354,1.354,0,1,1,0-2.709H87.813a1.354,1.354,0,0,1,0,2.709Z" transform="translate(-18.393 -116.165)" fill="#13132d"/><path d="M141.636,266.369h-9.481a1.354,1.354,0,1,1,0-2.709h9.481a1.354,1.354,0,1,1,0,2.709Z" transform="translate(-54.593 -116.165)" fill="#13132d"/><path d="M369.582,98.018a1.354,1.354,0,0,1-1.354-1.354,13.884,13.884,0,1,0-27.769,0,1.354,1.354,0,1,1-2.709,0,16.593,16.593,0,0,1,33.187,0,1.349,1.349,0,0,1-1.354,1.354Z" transform="translate(-156.559 -25.708)" fill="#13132d"/><path d="M318.7,112.819H298.384a1.354,1.354,0,1,1,0-2.709H318.7a1.354,1.354,0,0,1,0,2.709Z" transform="translate(-136.496 -40.509)" fill="#13132d"/><path d="M446.631,89.79a1.349,1.349,0,0,1-1.354-1.354,22.355,22.355,0,1,0-44.71,0,1.354,1.354,0,0,1-2.706,0,25.064,25.064,0,1,1,50.128,0,1.354,1.354,0,0,1-1.357,1.354Z" transform="translate(-186.176 -17.479)" fill="#13132d"/><path d="M304.226,112.819H269.684a1.354,1.354,0,0,1,0-2.709h34.546a1.354,1.354,0,1,1,0,2.709Z" transform="translate(-122.355 -40.509)" fill="#13132d"/><path d="M1219.168,367.529h-10.653a1.015,1.015,0,1,1,0-2.029h10.653a1.015,1.015,0,0,1,0,2.029Z" transform="translate(-585.096 -166.342)" fill="#13132d"/><path d="M231.656,231.058H188.029a2.029,2.029,0,0,1,0-4.058h43.627a2.029,2.029,0,0,1,0,4.058Z" transform="translate(-81.79 -98.102)" fill="#13132d"/><path d="M312.233,231.058h-14.2a2.029,2.029,0,0,1,0-4.058h14.2a2.029,2.029,0,0,1,0,4.058Z" transform="translate(-135.989 -98.102)" fill="#13132d"/><path d="M1191.656,67.058h-43.627a2.029,2.029,0,1,1,0-4.058h43.627a2.029,2.029,0,0,1,0,4.058Z" transform="translate(-554.794 -17.297)" fill="#13132d"/><path d="M1272.233,67.058h-14.2a2.029,2.029,0,1,1,0-4.058h14.2a2.029,2.029,0,1,1,0,4.058Z" transform="translate(-608.992 -17.297)" fill="#13132d"/><path d="M1083.685,244.886a2.029,2.029,0,0,1-2.029-2.029,20.8,20.8,0,1,0-41.6,0,2.029,2.029,0,0,1-4.058,0,24.857,24.857,0,1,1,49.714,0A2.029,2.029,0,0,1,1083.685,244.886Z" transform="translate(-500.595 -93.667)" fill="#13132d"/><path d="M969.049,232.568a2.029,2.029,0,0,1-2.029-2.029,33.481,33.481,0,0,0-66.962,0,2.029,2.029,0,0,1-4.058,0,37.539,37.539,0,0,1,75.079,0A2.029,2.029,0,0,1,969.049,232.568Z" transform="translate(-431.616 -81.349)" fill="#13132d"/><path d="M1181.772,267.058h-51.743a2.029,2.029,0,1,1,0-4.058h51.743a2.029,2.029,0,1,1,0,4.058Z" transform="translate(-545.925 -115.839)" fill="#13132d"/><path d="M102.442,471.767h-4.1a.259.259,0,0,1,0-.507h4.1a.259.259,0,0,1,0,.507Z" transform="translate(-38.496 -218.452)" fill="#13132d"/><path d="M498.482,474.337H495.8a.254.254,0,1,1,0-.507h2.678a.254.254,0,1,1,0,.507Z" transform="translate(-234.309 -219.718)" fill="#13132d"/></g></svg>